@startuml DomainModelDiagram

package "Inventory <<Aggregate>>" #DDDDDD {
    class Inventory <<Entity>> <<Aggregate Root>> {
        -ID : long
        -Description : string
    }
}

package "MealItem <<Aggregate>>" #DDDDDD {
    class MealItem <<Entity>> <<Aggregate Root>> {
        -ID : long
        -ProductionDate : datetime
        -ExpirationDate : datetime
        -MealIdentificationNumberStatic : string
    }

    object InventoryID <<Value Object>>

    object MealID <<Value Object>>

    MealItem -- InventoryID
    MealItem -- MealID
}

package "Meal <<Aggregate>>" #DDDDDD {
    class Meal <<Entity>> <<Aggregate Root>> {
        -ID : long
        -Description : string
        -AlergicComponents : List<AlergicComponent>
        -Ingredients : List<Ingredient>
        -MealDescriptors : List<MealDescriptor>

        +void AddAlergicComponent()
        +void AddIngredient()
        +void AddMealDescriptor()

        +void RemoveAlergicComponent()
        +void RemoveIngredient()
        +void RemoveMealDescriptor()
    }

    class Ingredient <<Entity>> {
        -ID : long
        -Description : string
    }

    class AlergicComponent <<Entity>> {
        -ID : long
        -Description : string
    }

    class MealDescriptor <<Entity>> {
        -ID : long
        -Description : string
        -Name : string
    }

    object MealIdentificationNumber <<ValueObject>> {
        -MealIdentificationNumberPrefix : string

        +bool ChangeMealIdentificationNumberGen()
        +string GenerateMealIdentificationNumber()
    }

    Meal "0..*" -- "0..*" AlergicComponent
    Meal "1" -- "0..*" MealDescriptor
    Meal "0..*" -- "1..*" Ingredient
    Meal -- MealIdentificationNumber
}

package "EventLog <<Aggregate>>" #DDDDDD {
    interface WriteLog

    class EventLog  {
        -ID : long
        -Description : string
        -UserTypeID : User
        -Action : EventAction
        -Class : T
        -Date : DateTime

        +WriteLog()
    }

    enum EventAction {
        - Add
        - Create
        - Update
        - Delete
    }

    object UserTypeID <<ValueObject>>

    WriteLog <|.. EventLog
    EventLog -- UserTypeID
    EventLog -- EventAction
}

package "User <<Aggreate>>" #DDDDDD {
    class UserType {
        -ID : long
        -Description : string
    }
}

Inventory "0..*" -- "0..*" MealItem
MealItem "0..*" -- "1" Meal
EventLog "0..*" -- "1" UserType
MealItem ..> WriteLog
Meal ..> WriteLog

' class Sale <<Entity>> {
    '     -ID : long
    '     -DateSold : datetime
    '     -Checkout : bool
    '     -MealItems : List<MealItem>

    '     +void AddSoldMealItem()
    '     +void RemoveSoldMealItem()
    '     +bool Checkout() }

' Sale "0..1" -- "1..*" MealItem

@enduml